{"title":"Jason Derulo -Trumpets 720p x264 AAC E-Subs [GWC].mp4","uid":9145672,"size":55961970,"categoryP":"video","categoryS":"music_videos","magnet":"?xt=urn:btih:a8b5da3118d87dd071a3fa1ca924a334446fea07&amp;dn=Jason+Derulo+-Trumpets+720p+x264+AAC+E-Subs+%5BGWC%5D.mp4&amp;tr=udp%3A%2F%2Ftracker.openbittorrent.com%3A80&amp;tr=udp%3A%2F%2Fopen.demonii.com%3A1337&amp;tr=udp%3A%2F%2Ftracker.coppersurfer.tk%3A6969&amp;tr=udp%3A%2F%2Fexodus.desync.com%3A6969","seeders":3,"leechers":0,"uploader":"canc232","files":1,"time":1383589319,"description":"Jason Derulo -Trumpets 720p x264 AAC E-Subs [GWC]\n &lt;a href=&quot;\nhttp://s20.postimg.org/hl6xz0a2l/145e02fe.jpg&quot; rel=&quot;nofollow&quot; target=&quot;_NEW&quot;&gt;\nhttp://s20.postimg.org/hl6xz0a2l/145e02fe.jpg&lt;/a&gt;\n\nThe video shows Jason and his voluptuous love interest getting cozy on the bed,and in the car,\nand getting interrupted before the &quot;magic&quot; happens by a band of trumpeters.\n\n\nTHUMBNAIL IMAGE : &lt;a href=&quot;\nhttp://img12.imageshack.us/img12/9109/2ewh.jpg&quot; rel=&quot;nofollow&quot; target=&quot;_NEW&quot;&gt;\nhttp://img12.imageshack.us/img12/9109/2ewh.jpg&lt;/a&gt;\n\n\nMEDIA INFO :\n\nGeneral \nFormat : MPEG-4 \nFile size : 53.4 MiB \nDuration : 3mn 57s \nOverall bit rate mode : Variable \nOverall bit rate : 1 881 Kbps\n\nVideo \nFormat : AVC\nFormat profile : &lt;a class=&quot;__cf_email__&quot; href=&quot;/cdn-cgi/l/email-protection&quot; data-cfemail=&quot;266b474f48666a150817&quot;&gt;[email&amp;#160;protected]&lt;/a&gt;&lt;script cf-hash='f9e31' type=&quot;text/javascript&quot;&gt;\n/* &lt;![CDATA[ */!function(){try{var t=&quot;currentScript&quot;in document?document.currentScript:function(){for(var t=document.getElementsByTagName(&quot;script&quot;),e=t.length;e--;)if(t[e].getAttribute(&quot;cf-hash&quot;))return t[e]}();if(t&amp;&amp;t.previousSibling){var e,r,n,i,c=t.previousSibling,a=c.getAttribute(&quot;data-cfemail&quot;);if(a){for(e=&quot;&quot;,r=parseInt(a.substr(0,2),16),n=2;a.length-n;n+=2)i=parseInt(a.substr(n,2),16)^r,e+=String.fromCharCode(i);e=document.createTextNode(e),c.parentNode.replaceChild(e,c)}}}catch(u){}}();/* ]]&gt; */&lt;/script&gt; \nFormat settings, CABAC : Yes \nFormat settings, ReFrames : 3 frames \nDuration : 3mn 57s \nSource duration : 3mn 57s \nBit rate : 1 799 Kbps\nWidth : 1 280 pixels \nHeight : 720 pixels \nDisplay aspect ratio : 16:9 \nFrame rate : 23.976 fps \nTitle : Jason Derulo -Trumpets 720p x264 AAC E-Subs [GWC]\n\nAudio \nFormat : AAC \nFormat profile : LC \nDuration : 3mn 57s \nBit rate mode : Variable \nChannel(s) : 2 channels \nSampling rate : 48.0 KHz \nStream size : 2.36 MiB (4%)  \nLanguage : English \n\nText \nID : 3 \nFormat : Timed Text \nCodec ID : tx3g \nDuration : 3mn 57s \nBit rate mode : Variable \nBit rate : 81 bps \nDelay relative to video : 42ms \nStream size : 2.36 KiB (0%) \nTitle : English Subtitle by [GWC] \nLanguage : English","torrent":{"xt":"urn:btih:a8b5da3118d87dd071a3fa1ca924a334446fea07","amp;dn":"Jason+Derulo+-Trumpets+720p+x264+AAC+E-Subs+%5BGWC%5D.mp4","amp;tr":["udp%3A%2F%2Ftracker.openbittorrent.com%3A80","udp%3A%2F%2Fopen.demonii.com%3A1337","udp%3A%2F%2Ftracker.coppersurfer.tk%3A6969","udp%3A%2F%2Fexodus.desync.com%3A6969"],"infoHash":"a8b5da3118d87dd071a3fa1ca924a334446fea07","infoHashBuffer":{"type":"Buffer","data":[168,181,218,49,24,216,125,208,113,163,250,28,169,36,163,52,68,111,234,7]},"announce":[],"urlList":[]}}